<svg width="24" height="24" viewBox="0 0 24 24" fill="none" xmlns="http://www.w3.org/2000/svg">
<path d="M1.5 0H9.5C9.5 0 11 0 11 1.5V9.5C11 9.5 11 11 9.5 11H1.5C1.5 11 0 11 0 9.5V1.5C0 1.5 0 0 1.5 0Z" fill="#F9F9F9"/>
<path d="M14.5 0H22.5C22.5 0 24 0 24 1.5V9.5C24 9.5 24 11 22.5 11H14.5C14.5 11 13 11 13 9.5V1.5C13 1.5 13 0 14.5 0Z" fill="#F9F9F9"/>
<path d="M1.5 13H9.5C9.5 13 11 13 11 14.5V22.5C11 22.5 11 24 9.5 24H1.5C1.5 24 0 24 0 22.5V14.5C0 14.5 0 13 1.5 13Z" fill="#F9F9F9"/>
<path d="M14.5 13H22.5C22.5 13 24 13 24 14.5V22.5C24 22.5 24 24 22.5 24H14.5C14.5 24 13 24 13 22.5V14.5C13 14.5 13 13 14.5 13Z" fill="#F9F9F9"/>
</svg>
