<svg width="21" height="22" viewBox="0 0 21 22" fill="none" xmlns="http://www.w3.org/2000/svg">
<path d="M10.3409 0.92334C8.29567 0.92334 6.29636 1.52982 4.59581 2.6661C2.89526 3.80237 1.56984 5.4174 0.787159 7.30695C0.00448057 9.19651 -0.200304 11.2757 0.198702 13.2817C0.597708 15.2876 1.58258 17.1302 3.02879 18.5764C4.47499 20.0226 6.31756 21.0074 8.3235 21.4065C10.3294 21.8055 12.4086 21.6007 14.2982 20.818C16.1878 20.0353 17.8028 18.7099 18.9391 17.0093C20.0753 15.3088 20.6818 13.3095 20.6818 11.2642C20.6818 8.52167 19.5923 5.89142 17.653 3.95212C15.7137 2.01282 13.0835 0.92334 10.3409 0.92334ZM10.3409 15.573C5.79091 15.573 3.29186 11.6606 3.18845 11.4883C3.1464 11.4211 3.12411 11.3435 3.12411 11.2642C3.12411 11.185 3.1464 11.1074 3.18845 11.0402C3.29186 10.8678 5.79091 6.95553 10.3409 6.95553C14.8909 6.95553 17.39 10.8678 17.4934 11.0402C17.5354 11.1074 17.5577 11.185 17.5577 11.2642C17.5577 11.3435 17.5354 11.4211 17.4934 11.4883C17.39 11.6606 14.8909 15.573 10.3409 15.573Z" fill="#0A0047"/>
<path d="M13.788 11.2644C13.788 10.5826 13.5858 9.91617 13.2071 9.34932C12.8283 8.78247 12.29 8.34066 11.6601 8.07977C11.0303 7.81888 10.3372 7.75061 9.66854 7.88362C8.9999 8.01662 8.38571 8.34491 7.90364 8.82698C7.42157 9.30905 7.09328 9.92324 6.96028 10.5919C6.82728 11.2605 6.89554 11.9536 7.15643 12.5835C7.41732 13.2133 7.85913 13.7516 8.42598 14.1304C8.99283 14.5092 9.65927 14.7113 10.341 14.7113C11.2552 14.7113 12.132 14.3482 12.7784 13.7017C13.4248 13.0553 13.788 12.1785 13.788 11.2644ZM10.341 12.557C10.0854 12.557 9.83545 12.4812 9.62288 12.3391C9.41031 12.1971 9.24463 11.9952 9.14679 11.759C9.04896 11.5228 9.02336 11.2629 9.07324 11.0122C9.12311 10.7614 9.24622 10.5311 9.427 10.3503C9.60777 10.1696 9.83809 10.0465 10.0888 9.99658C10.3396 9.9467 10.5995 9.9723 10.8357 10.0701C11.0719 10.168 11.2737 10.3336 11.4158 10.5462C11.5578 10.7588 11.6336 11.0087 11.6336 11.2644C11.6336 11.6072 11.4974 11.936 11.255 12.1784C11.0126 12.4208 10.6838 12.557 10.341 12.557Z" fill="#0A0047"/>
</svg>
