<svg width="10" height="24" viewBox="0 0 10 24" fill="none" xmlns="http://www.w3.org/2000/svg">
<path d="M0 5C0 6.32608 0.526784 7.59785 1.46447 8.53553C2.40215 9.47322 3.67392 10 5 10C6.32608 10 7.59785 9.47322 8.53553 8.53553C9.47322 7.59785 10 6.32608 10 5C10 3.67392 9.47322 2.40215 8.53553 1.46447C7.59785 0.526784 6.32608 0 5 0C3.67392 0 2.40215 0.526784 1.46447 1.46447C0.526784 2.40215 0 3.67392 0 5Z" fill="#CF3200"/>
<path d="M5 11.5C4.66848 11.5 4.35054 11.6317 4.11612 11.8661C3.8817 12.1005 3.75 12.4185 3.75 12.75V22.75C3.75 23.0815 3.8817 23.3995 4.11612 23.6339C4.35054 23.8683 4.66848 24 5 24C5.33152 24 5.64946 23.8683 5.88388 23.6339C6.1183 23.3995 6.25 23.0815 6.25 22.75V12.75C6.25 12.4185 6.1183 12.1005 5.88388 11.8661C5.64946 11.6317 5.33152 11.5 5 11.5Z" fill="black"/>
</svg>
