<svg width="27" height="27" viewBox="0 0 27 27" fill="none" xmlns="http://www.w3.org/2000/svg">
<path d="M13.5 0C10.83 0 8.21987 0.791761 5.99981 2.27516C3.77974 3.75856 2.04941 5.86697 1.02763 8.33377C0.00584936 10.8006 -0.261496 13.515 0.259405 16.1337C0.780305 18.7525 2.06606 21.1579 3.95406 23.0459C5.84207 24.9339 8.24754 26.2197 10.8663 26.7406C13.485 27.2615 16.1994 26.9942 18.6662 25.9724C21.133 24.9506 23.2414 23.2203 24.7248 21.0002C26.2082 18.7801 27 16.17 27 13.5C27 9.91958 25.5777 6.4858 23.0459 3.95406C20.5142 1.42232 17.0804 0 13.5 0ZM18.9 19.9575C18.9156 20.0595 18.9029 20.1638 18.8632 20.259C18.8235 20.3543 18.7584 20.4368 18.675 20.4975C18.5865 20.55 18.4854 20.5777 18.3825 20.5777C18.2796 20.5777 18.1785 20.55 18.09 20.4975L13.7475 18.3262C13.6687 18.2875 13.5821 18.2674 13.4944 18.2674C13.4066 18.2674 13.32 18.2875 13.2413 18.3262L8.92125 20.5425C8.83271 20.595 8.73168 20.6227 8.62875 20.6227C8.52583 20.6227 8.4248 20.595 8.33625 20.5425C8.25283 20.4818 8.18772 20.3993 8.14803 20.304C8.10835 20.2088 8.09562 20.1045 8.11125 20.0025L8.8425 15.1987C8.85611 15.1131 8.8489 15.0255 8.82148 14.9433C8.79407 14.861 8.74726 14.7866 8.685 14.7262L5.27625 11.25C5.19384 11.1754 5.13538 11.078 5.10827 10.9702C5.08115 10.8624 5.0866 10.7489 5.12392 10.6442C5.16123 10.5395 5.22875 10.4482 5.31793 10.3818C5.40712 10.3154 5.51397 10.2769 5.625 10.2712L10.4175 9.48375C10.505 9.47113 10.5883 9.43807 10.6606 9.38725C10.7329 9.33643 10.7922 9.26928 10.8338 9.19125L13.0838 4.8825C13.131 4.79036 13.2027 4.71304 13.291 4.65904C13.3793 4.60505 13.4809 4.57648 13.5844 4.57648C13.6879 4.57648 13.7894 4.60505 13.8778 4.65904C13.9661 4.71304 14.0378 4.79036 14.085 4.8825L16.335 9.19125C16.3732 9.26961 16.4301 9.33732 16.5008 9.38835C16.5714 9.43938 16.6536 9.47215 16.74 9.48375L21.5213 10.2712C21.6243 10.287 21.721 10.3311 21.8005 10.3987C21.88 10.4662 21.9391 10.5545 21.9713 10.6537C22.0031 10.7508 22.0073 10.8548 21.9835 10.9541C21.9596 11.0535 21.9087 11.1442 21.8363 11.2162L18.4613 14.6812C18.4012 14.7431 18.3558 14.8177 18.3286 14.8995C18.3013 14.9813 18.2928 15.0682 18.3038 15.1537L18.9 19.9575Z" fill="#F9F9F9"/>
</svg>
