<svg width="27" height="24" viewBox="0 0 27 24" fill="none" xmlns="http://www.w3.org/2000/svg">
<path fill-rule="evenodd" clip-rule="evenodd" d="M26.5282 5.21646C26.6675 5.27323 26.7869 5.3711 26.871 5.49744C26.9551 5.62378 27 5.77281 27 5.92534C27 6.07786 26.9551 6.22689 26.871 6.35324C26.7869 6.47958 26.6675 6.57744 26.5282 6.63422L14.1596 11.7026C13.6746 11.9012 13.1322 11.9 12.6495 11.6991L3.46787 7.8803V17.1074C3.90077 17.3034 4.26831 17.6229 4.5258 18.0272C4.78329 18.4315 4.91963 18.9031 4.91826 19.3847V23.4161C4.91826 23.5709 4.85772 23.7195 4.74995 23.829C4.64218 23.9385 4.49602 24 4.34362 24H0.586622C0.434218 24 0.288056 23.9385 0.180291 23.829C0.0725247 23.7195 0.0119825 23.5709 0.0119825 23.4161V19.3847C0.0119825 18.3652 0.60616 17.4928 1.46352 17.1062V7.04646L0.467097 6.63305C0.328942 6.57546 0.210761 6.47743 0.127586 6.3514C0.0444115 6.22538 0 6.07707 0 5.92534C0 5.7736 0.0444115 5.62529 0.127586 5.49927C0.210761 5.37325 0.328942 5.27521 0.467097 5.21762L12.6495 0.151532C13.1322 -0.0493361 13.6746 -0.050504 14.1596 0.148029L26.5282 5.21646ZM14.7216 13.1204L21.4449 10.3655V14.8465C21.4474 14.9995 21.4126 15.1509 21.3436 15.287C21.2747 15.4231 21.1736 15.5398 21.0495 15.6266C20.029 16.3226 17.1225 18.0487 13.4068 18.0487C9.69007 18.0487 6.91685 16.3203 5.95261 15.6266C5.83532 15.5396 5.74035 15.4252 5.67574 15.2931C5.61113 15.161 5.57876 15.015 5.58139 14.8675V10.411L12.0794 13.1134C12.926 13.4655 13.8744 13.4681 14.7228 13.1204H14.7216Z" fill="#F9F9F9"/>
</svg>
