<svg xmlns="http://www.w3.org/2000/svg" fill="none" viewBox="0 0 24 24" height="200" width="200"><path fill="#0046cf" fill-rule="evenodd" d="M23.325 7.258a.654.654 0 0 1 0 1.214l-10.762 4.34c-.422.17-.894.169-1.314-.003L3.26 9.539v7.901a2.128 2.128 0 0 1 1.262 1.95v3.452a.5.5 0 0 1-.5.5H.753a.5.5 0 0 1-.5-.5V19.39c0-.873.517-1.62 1.263-1.951V8.825l-.867-.354a.655.655 0 0 1 0-1.212l10.6-4.338c.42-.172.892-.173 1.314-.003l10.762 4.34Zm-10.273 6.768 5.85-2.359v3.837a.795.795 0 0 1-.344.668c-.888.596-3.417 2.074-6.65 2.074-3.234 0-5.647-1.48-6.486-2.074a.787.787 0 0 1-.323-.65v-3.816l5.654 2.314a3.055 3.055 0 0 0 2.3.006Z" clip-rule="evenodd"></path></svg>