<svg width="23" height="21" viewBox="0 0 23 21" fill="none" xmlns="http://www.w3.org/2000/svg">
<path d="M22.3637 13.4155L19.5938 8.32811C19.4424 8.04875 19.2184 7.81548 18.9454 7.65295C18.6723 7.49043 18.3604 7.4047 18.0427 7.40482H16.0114C15.7666 7.40482 15.5317 7.50209 15.3586 7.67525C15.1854 7.8484 15.0882 8.08324 15.0882 8.32811C15.0882 8.57299 15.1854 8.80783 15.3586 8.98098C15.5317 9.15413 15.7666 9.25141 16.0114 9.25141H17.858C17.8994 9.25224 17.9398 9.26372 17.9754 9.28475C18.0109 9.30578 18.0405 9.33564 18.0612 9.37144L20.0647 13.0646C20.085 13.0997 20.0956 13.1395 20.0956 13.18C20.0956 13.2205 20.085 13.2604 20.0647 13.2954C20.0451 13.3294 20.0168 13.3576 19.9827 13.377C19.9487 13.3965 19.9101 13.4066 19.8708 13.4062H16.4731C16.1058 13.4062 15.7535 13.5522 15.4938 13.8119C15.2341 14.0716 15.0882 14.4239 15.0882 14.7912C15.0882 15.1585 14.9422 15.5108 14.6825 15.7705C14.4228 16.0302 14.0705 16.1761 13.7032 16.1761H9.08673C8.9033 16.1761 8.72168 16.1397 8.55244 16.069C8.38319 15.9982 8.22969 15.8945 8.10084 15.764C7.972 15.6334 7.87037 15.4785 7.80187 15.3084C7.73336 15.1382 7.69934 14.9561 7.70179 14.7727C7.70179 14.4054 7.55588 14.0531 7.29615 13.7934C7.03642 13.5337 6.68416 13.3878 6.31685 13.3878H2.90066C2.86178 13.3864 2.82382 13.3756 2.79004 13.3563C2.75627 13.337 2.72769 13.3098 2.70676 13.277C2.6865 13.2419 2.67584 13.2021 2.67584 13.1616C2.67584 13.121 2.6865 13.0812 2.70676 13.0462L4.63645 9.35297C4.65557 9.31586 4.68477 9.28491 4.72071 9.26368C4.75665 9.24244 4.79785 9.23179 4.83958 9.23294H6.31685C6.56172 9.23294 6.79656 9.13567 6.96972 8.96252C7.14287 8.78936 7.24014 8.55452 7.24014 8.30965C7.24014 8.06477 7.14287 7.82993 6.96972 7.65678C6.79656 7.48363 6.56172 7.38635 6.31685 7.38635H4.69185C4.3741 7.38623 4.06223 7.47197 3.78919 7.63449C3.51615 7.79701 3.2921 8.03028 3.14071 8.30965L0.426225 13.4155C0.364677 13.5527 0.327199 13.6995 0.31543 13.8494L0.31543 19.3892C0.31543 19.7565 0.461343 20.1088 0.72107 20.3685C0.980797 20.6282 1.33306 20.7741 1.70037 20.7741H21.0896C21.4569 20.7741 21.8091 20.6282 22.0689 20.3685C22.3286 20.1088 22.4745 19.7565 22.4745 19.3892V13.8494C22.4678 13.6987 22.43 13.551 22.3637 13.4155Z" fill="#0A0047"/>
<path d="M14.4878 3.6655L11.9487 0.277004C11.8847 0.190463 11.8012 0.120266 11.7049 0.0721314C11.6086 0.0239969 11.5024 -0.000712824 11.3947 1.5652e-05C11.2872 1.5652e-05 11.1812 0.0250451 11.0851 0.0731218C10.9889 0.121198 10.9053 0.191002 10.8408 0.277004L8.3017 3.6655C8.22464 3.76748 8.17773 3.88903 8.16631 4.01633C8.15488 4.14364 8.1794 4.2716 8.23707 4.38567C8.29383 4.50151 8.38182 4.59919 8.49111 4.66771C8.60041 4.73623 8.72668 4.77285 8.85568 4.77345H9.77897C9.84019 4.77345 9.8989 4.79777 9.94219 4.84106C9.98548 4.88435 10.0098 4.94306 10.0098 5.00428V8.46663C10.0098 8.83394 10.1557 9.18621 10.4154 9.44594C10.6752 9.70566 11.0274 9.85157 11.3947 9.85157C11.762 9.85157 12.1143 9.70566 12.374 9.44594C12.6338 9.18621 12.7797 8.83394 12.7797 8.46663V5.00428C12.7797 4.94306 12.804 4.88435 12.8473 4.84106C12.8906 4.79777 12.9493 4.77345 13.0105 4.77345H13.9338C14.0624 4.77345 14.1885 4.73764 14.2979 4.67003C14.4072 4.60242 14.4957 4.50569 14.5532 4.39066C14.6107 4.27564 14.635 4.14687 14.6235 4.01879C14.6119 3.89071 14.5649 3.76838 14.4878 3.6655Z" fill="#0A0047"/>
</svg>
